<?xml version="1.0" encoding="utf-8"?>
<!-- Generator: Adobe Illustrator 16.0.0, SVG Export Plug-In . SVG Version: 6.00 Build 0)  -->
<!DOCTYPE svg PUBLIC "-//W3C//DTD SVG 1.1//EN" "http://www.w3.org/Graphics/SVG/1.1/DTD/svg11.dtd">
<svg version="1.1" id="Layer_1" xmlns="http://www.w3.org/2000/svg" xmlns:xlink="http://www.w3.org/1999/xlink" x="0px" y="0px"
	 width="64px" height="64px" viewBox="0 0 64 64" enable-background="new 0 0 64 64" xml:space="preserve">
<g>
	<path fill="#EACD8D" d="M62.895,47.396l-13.52-8.028c-1.008-0.591-2.24-0.142-2.756,1.017c-0.518,1.157-0.124,2.579,0.881,3.178
		l8.577,5.094c-7.767,1.22-16.015-0.551-16.117-0.574C17.479,44.005,1.566,23.663,4.423,2.723C4.597,1.436,3.835,0.23,2.719,0.027
		C2.611,0.009,2.505,0,2.399,0C1.408,0,0.539,0.828,0.38,1.992c-3.207,23.509,14.234,46.269,38.88,50.736
		c0.377,0.084,8.36,1.793,16.481,0.717l-5.558,6.549c-0.791,0.932-0.776,2.424,0.03,3.334c0.812,0.911,2.104,0.893,2.896-0.037
		L63.42,51.145c0.021-0.025,0.029-0.063,0.051-0.09c0.148-0.192,0.274-0.406,0.362-0.645c0.008-0.023,0.024-0.041,0.03-0.064
		c0.074-0.217,0.121-0.447,0.136-0.687c0.002-0.039-0.008-0.075-0.008-0.115c0.002-0.078-0.011-0.149-0.017-0.226
		c-0.013-0.207-0.049-0.405-0.105-0.598c-0.023-0.076-0.044-0.147-0.076-0.225c-0.102-0.248-0.227-0.483-0.398-0.678
		c-0.002-0.006-0.004-0.008-0.006-0.012l-0.003-0.002C63.242,47.646,63.078,47.507,62.895,47.396z"/>
</g>
</svg>
