<?xml version="1.0" encoding="utf-8"?>
<!-- Generator: Adobe Illustrator 16.0.0, SVG Export Plug-In . SVG Version: 6.00 Build 0)  -->
<!DOCTYPE svg PUBLIC "-//W3C//DTD SVG 1.1//EN" "http://www.w3.org/Graphics/SVG/1.1/DTD/svg11.dtd">
<svg version="1.1" id="Layer_1" xmlns="http://www.w3.org/2000/svg" xmlns:xlink="http://www.w3.org/1999/xlink" x="0px" y="0px"
	 width="300px" height="100px" viewBox="0 0 300 100" enable-background="new 0 0 300 100" xml:space="preserve">
<g>
	<g>
		<polyline fill="#FFFFFF" points="291.803,29.363 256.352,70.698 220.902,29.363 		"/>
		<path fill="#EACD8D" d="M285.472,21.982c-11.816,13.778-23.634,27.557-35.45,41.335c4.22,0,8.44,0,12.66,0
			c-11.816-13.778-23.633-27.557-35.45-41.335c-8.17-9.526-20.831,5.235-12.66,14.763c11.816,13.778,23.633,27.556,35.45,41.334
			c3.448,4.022,9.211,4.022,12.66,0c11.817-13.778,23.634-27.556,35.451-41.334C306.304,27.218,293.643,12.456,285.472,21.982
			L285.472,21.982z"/>
	</g>
	<g>
		<polyline fill="#FFFFFF" points="220.9,29.363 185.45,70.698 150,29.363 		"/>
		<path fill="#EACD8D" d="M214.571,21.982c-11.817,13.778-23.634,27.557-35.451,41.335c4.221,0,8.44,0,12.66,0
			c-11.817-13.778-23.633-27.557-35.45-41.335c-8.17-9.526-20.832,5.235-12.661,14.763c11.818,13.778,23.634,27.556,35.451,41.334
			c3.449,4.022,9.211,4.022,12.66,0c11.817-13.778,23.634-27.556,35.451-41.334C235.402,27.218,222.741,12.456,214.571,21.982
			L214.571,21.982z"/>
	</g>
	<g>
		<polyline fill="#FFFFFF" points="79.099,29.363 43.648,70.698 8.198,29.363 		"/>
		<path fill="#EACD8D" d="M72.767,21.982C60.951,35.761,49.135,49.539,37.318,63.317c4.22,0,8.439,0,12.661,0
			C38.161,49.539,26.344,35.761,14.528,21.982C6.357,12.456-6.304,27.218,1.867,36.745c11.817,13.778,23.635,27.556,35.451,41.334
			c3.449,4.022,9.212,4.022,12.661,0c11.816-13.778,23.633-27.556,35.45-41.334C93.6,27.218,80.939,12.456,72.767,21.982
			L72.767,21.982z"/>
	</g>
	<g>
		<polyline fill="#FFFFFF" points="150,29.363 114.548,70.698 79.099,29.363 		"/>
		<path fill="#EACD8D" d="M143.669,21.982c-11.817,13.778-23.634,27.557-35.451,41.335c4.221,0,8.441,0,12.662,0
			c-11.817-13.778-23.635-27.557-35.451-41.335c-8.172-9.526-20.831,5.235-12.662,14.763c11.818,13.778,23.635,27.556,35.451,41.334
			c3.449,4.022,9.212,4.022,12.662,0c11.816-13.778,23.632-27.556,35.45-41.334C164.501,27.218,151.841,12.456,143.669,21.982
			L143.669,21.982z"/>
	</g>
</g>
</svg>
